<svg width="45" height="45" viewBox="0 0 45 45" fill="none" xmlns="http://www.w3.org/2000/svg">
<path d="M38.3808 15.4687L33.75 10.8379L24.1974 20.3905H33.4589L38.3808 15.4687Z" fill="#A98FC5"/>
<path d="M13.3594 41.4846C13.1217 41.4846 12.8904 41.4621 12.6562 41.4487V42.8908H32.3438V41.4487C32.1096 41.4621 31.8783 41.4846 31.6406 41.4846H13.3594Z" fill="#683E95"/>
<path d="M42.3507 11.4987C42.6938 11.1548 42.8907 10.6802 42.8907 10.1951C42.8907 9.70992 42.6938 9.23531 42.3507 8.89148L40.3264 6.86719C39.6394 6.18164 38.4068 6.18164 37.7199 6.86719L36.8536 7.73414L41.4844 12.3649L42.3507 11.4987Z" fill="#A98FC5"/>
<path d="M34.74 9.84668L35.855 8.73166L40.4851 13.3617L39.3701 14.4768L34.74 9.84668Z" fill="#A98FC5"/>
<path d="M21.7969 33.75V35.8594H23.2031V33.75C23.2031 33.3612 23.5174 33.0469 23.9062 33.0469H26.0156V31.6406H23.9062C23.5174 31.6406 23.2031 31.3263 23.2031 30.9375V28.8281H21.7969V30.9375C21.7969 31.3263 21.4826 31.6406 21.0938 31.6406H18.9844V33.0469H21.0938C21.4826 33.0469 21.7969 33.3612 21.7969 33.75Z" fill="#683E95"/>
<path d="M2.10938 28.8281C2.10938 35.0311 7.15641 40.0781 13.3594 40.0781H31.6406C37.8436 40.0781 42.8906 35.0311 42.8906 28.8281V24.6094H2.10938V28.8281ZM17.5781 30.9375C17.5781 30.5487 17.8924 30.2344 18.2812 30.2344H20.3906V28.125C20.3906 27.7362 20.7049 27.4219 21.0938 27.4219H23.9062C24.2951 27.4219 24.6094 27.7362 24.6094 28.125V30.2344H26.7188C27.1076 30.2344 27.4219 30.5487 27.4219 30.9375V33.75C27.4219 34.1388 27.1076 34.4531 26.7188 34.4531H24.6094V36.5625C24.6094 36.9513 24.2951 37.2656 23.9062 37.2656H21.0938C20.7049 37.2656 20.3906 36.9513 20.3906 36.5625V34.4531H18.2812C17.8924 34.4531 17.5781 34.1388 17.5781 33.75V30.9375Z" fill="#683E95"/>
<path d="M12.6562 4.21871L12.0986 3.66113L8.58301 7.17676L9.14059 7.73434C9.59059 8.18434 10.2016 8.43746 10.8379 8.43746H10.9589C11.5952 8.43746 12.2062 8.18434 12.6562 7.73434C13.1062 7.28434 13.3593 6.67332 13.3593 6.03699V5.91605C13.3593 5.27973 13.1062 4.66871 12.6562 4.21871Z" fill="#A98FC5"/>
<path d="M10.5469 2.10938C10.0969 1.65938 9.48586 1.40625 8.84953 1.40625H8.72859C8.09227 1.40625 7.48125 1.65938 7.03125 2.10938C6.58125 2.55938 6.32812 3.17039 6.32812 3.80672V3.92766C6.32812 4.56398 6.58125 5.175 7.03125 5.625L7.58883 6.18258L11.1045 2.66695L10.5469 2.10938Z" fill="#A98FC5"/>
<path d="M19.6875 11.9531C19.2375 11.5031 18.6264 11.25 17.9901 11.25H17.8692C17.2329 11.25 16.6218 11.5031 16.1718 11.9531L15.6143 12.5107L19.1299 16.0263L19.6875 15.4688C20.1375 15.0187 20.3906 14.4077 20.3906 13.7714V13.6505C20.3906 13.0141 20.1375 12.4031 19.6875 11.9531Z" fill="#A98FC5"/>
<path d="M14.0625 14.0625C13.6125 14.5125 13.3594 15.1235 13.3594 15.7598V15.8807C13.3594 16.5178 13.6125 17.1281 14.0625 17.5781C14.5125 18.0281 15.1235 18.2812 15.7598 18.2812H15.8808C16.5171 18.2812 17.1281 18.0281 17.5781 17.5781L18.1357 17.0205L14.6201 13.5049L14.0625 14.0625Z" fill="#A98FC5"/>
<path d="M5.27344 17.2266C4.59844 16.5516 4.21875 15.6354 4.21875 14.6805V14.0625H4.8368C5.79164 14.0625 6.70781 14.4422 7.38281 15.1172C8.05781 15.7922 8.4375 16.7084 8.4375 17.6632V18.2812H7.81945C6.86461 18.2812 5.94844 17.9016 5.27344 17.2266Z" fill="#A98FC5"/>
<path d="M26.3672 7.38281C25.6922 8.05781 24.776 8.4375 23.8212 8.4375H23.2031V7.81945C23.2031 6.86461 23.5828 5.94844 24.2578 5.27344C24.9328 4.59844 25.849 4.21875 26.8038 4.21875H27.4219V4.8368C27.4219 5.79164 27.0422 6.70781 26.3672 7.38281Z" fill="#A98FC5"/>
</svg>
