<svg width="45" height="45" viewBox="0 0 45 45" fill="none" xmlns="http://www.w3.org/2000/svg">
<g clip-path="url(#clip0_2755_243)">
<path d="M25.8279 22.1915C25.0817 19.9766 23.6689 17.9935 21.8052 16.5611C19.8893 15.0883 17.6268 14.2553 15.2274 14.1285L13.5489 12.0622C13.3564 11.8254 13.2504 11.5266 13.2504 11.2213V11.143C13.2504 10.4075 13.8489 9.80907 14.5844 9.80907C15.3199 9.80907 15.9183 10.4075 15.9183 11.143C15.9183 11.8711 16.5086 12.4613 17.2367 12.4613C17.9648 12.4613 18.555 11.8711 18.555 11.143C18.555 8.95364 16.7738 7.17236 14.5844 7.17236C12.395 7.17236 10.6137 8.95364 10.6137 11.143V11.2213C10.6137 12.1303 10.9294 13.0194 11.5025 13.7248L12.0372 14.3831C10.3486 14.7507 8.76302 15.4847 7.36275 16.5611C5.49921 17.9936 4.08646 19.9765 3.34019 22.1915C1.52288 22.4153 0.0969475 23.9383 0.00483851 25.7747C-0.0479835 26.8283 0.322474 27.8286 1.04783 28.5912C1.65533 29.23 2.47201 29.6372 3.34001 29.7454C4.0862 31.9607 5.49904 33.9438 7.36284 35.3764C9.44926 36.9802 11.9462 37.828 14.5839 37.828C17.2215 37.828 19.7185 36.9802 21.805 35.3764C23.6687 33.9437 25.0815 31.9609 25.8278 29.7454C26.6958 29.6372 27.5126 29.2299 28.12 28.5911C28.8454 27.8284 29.2158 26.8282 29.1629 25.7747C29.071 23.9383 27.6452 22.4153 25.8279 22.1915ZM19.5457 30.9303C18.2204 32.2556 16.4583 32.9856 14.5841 32.9856C12.7098 32.9856 10.9477 32.2556 9.62241 30.9303C9.10755 30.4156 9.10755 29.5808 9.62241 29.0659C10.1372 28.5511 10.972 28.5511 11.4868 29.0659C12.3141 29.8932 13.4141 30.3489 14.5841 30.3489C15.7541 30.3489 16.8539 29.8932 17.6812 29.0659C18.196 28.5511 19.0308 28.551 19.5457 29.0659C20.0606 29.5807 20.0606 30.4154 19.5457 30.9303Z" fill="#683E95"/>
<path d="M43.6817 11.752H31.0052C30.2772 11.752 29.6869 12.3422 29.6869 13.0703C29.6869 13.7984 30.2772 14.3887 31.0052 14.3887H31.4101V28.0363C31.4101 29.4613 32.2828 31.0767 34.0782 32.9746C34.8192 33.758 35.5549 34.4131 36.025 34.8121V39.887C36.025 40.6151 36.6153 41.2054 37.3434 41.2054C38.0714 41.2054 38.6617 40.6151 38.6617 39.887V34.8121C39.1318 34.4131 39.8677 33.758 40.6086 32.9746C42.404 31.0766 43.2767 29.4612 43.2767 28.0363V26.6952H38.8814C38.1534 26.6952 37.5631 26.105 37.5631 25.3769C37.5631 24.6488 38.1534 24.0585 38.8814 24.0585H43.2767V20.5419H38.8814C38.1534 20.5419 37.5631 19.9516 37.5631 19.2235C37.5631 18.4954 38.1534 17.9052 38.8814 17.9052H43.2767V14.3886H43.6815C44.4096 14.3886 44.9998 13.7983 44.9998 13.0702C44.9998 12.3421 44.4097 11.752 43.6817 11.752Z" fill="#A98FC5"/>
<path d="M31.0051 6.43164H33.3727V9.11503H41.314V6.43164H43.6816C44.4097 6.43164 44.9999 5.84137 44.9999 5.11328C44.9999 4.3852 44.4097 3.79492 43.6816 3.79492H31.0051C30.277 3.79492 29.6868 4.3852 29.6868 5.11328C29.6868 5.84137 30.277 6.43164 31.0051 6.43164Z" fill="#A98FC5"/>
</g>
<defs>
<clipPath id="clip0_2755_243">
<rect width="45" height="45" fill="white"/>
</clipPath>
</defs>
</svg>
